<mxfile host="app.diagrams.net" agent="Mozilla/5.0 (Windows NT 10.0; Win64; x64) AppleWebKit/537.36 (KHTML, like Gecko) Chrome/128.0.0.0 YaBrowser/24.10.0.0 Safari/537.36" version="25.0.3">
  <diagram name="Страница — 1" id="N9VYpWmBQW3GuGYubngC">
    <mxGraphModel dx="2507" dy="1610" grid="1" gridSize="10" guides="1" tooltips="1" connect="1" arrows="1" fold="1" page="1" pageScale="1" pageWidth="827" pageHeight="1169" math="0" shadow="0">
      <root>
        <mxCell id="0" />
        <mxCell id="1" parent="0" />
        <mxCell id="e1DrF9yIWChWVW_2N1ab-13" style="edgeStyle=none;curved=1;rounded=0;orthogonalLoop=1;jettySize=auto;html=1;exitX=0.5;exitY=1;exitDx=0;exitDy=0;entryX=0.5;entryY=0;entryDx=0;entryDy=0;fontSize=12;startSize=8;endSize=8;" edge="1" parent="1" source="e1DrF9yIWChWVW_2N1ab-1" target="e1DrF9yIWChWVW_2N1ab-2">
          <mxGeometry relative="1" as="geometry" />
        </mxCell>
        <mxCell id="e1DrF9yIWChWVW_2N1ab-1" value="" style="ellipse;whiteSpace=wrap;html=1;aspect=fixed;" vertex="1" parent="1">
          <mxGeometry x="240" y="30" width="80" height="80" as="geometry" />
        </mxCell>
        <mxCell id="e1DrF9yIWChWVW_2N1ab-12" style="edgeStyle=none;curved=1;rounded=0;orthogonalLoop=1;jettySize=auto;html=1;exitX=0.5;exitY=1;exitDx=0;exitDy=0;entryX=0.5;entryY=0;entryDx=0;entryDy=0;fontSize=12;startSize=8;endSize=8;" edge="1" parent="1" source="e1DrF9yIWChWVW_2N1ab-2" target="e1DrF9yIWChWVW_2N1ab-3">
          <mxGeometry relative="1" as="geometry" />
        </mxCell>
        <mxCell id="e1DrF9yIWChWVW_2N1ab-2" value="клиент создает заказ" style="rounded=1;whiteSpace=wrap;html=1;" vertex="1" parent="1">
          <mxGeometry x="220" y="140" width="120" height="60" as="geometry" />
        </mxCell>
        <mxCell id="e1DrF9yIWChWVW_2N1ab-7" style="edgeStyle=none;curved=1;rounded=0;orthogonalLoop=1;jettySize=auto;html=1;exitX=0;exitY=0.5;exitDx=0;exitDy=0;entryX=0.5;entryY=0;entryDx=0;entryDy=0;fontSize=12;startSize=8;endSize=8;" edge="1" parent="1" source="e1DrF9yIWChWVW_2N1ab-3" target="e1DrF9yIWChWVW_2N1ab-5">
          <mxGeometry relative="1" as="geometry" />
        </mxCell>
        <mxCell id="e1DrF9yIWChWVW_2N1ab-9" value="да" style="edgeLabel;html=1;align=center;verticalAlign=middle;resizable=0;points=[];fontSize=12;" vertex="1" connectable="0" parent="e1DrF9yIWChWVW_2N1ab-7">
          <mxGeometry x="-0.1909" y="1" relative="1" as="geometry">
            <mxPoint as="offset" />
          </mxGeometry>
        </mxCell>
        <mxCell id="e1DrF9yIWChWVW_2N1ab-3" value="товар есть в наличии" style="rhombus;whiteSpace=wrap;html=1;" vertex="1" parent="1">
          <mxGeometry x="220" y="230" width="120" height="80" as="geometry" />
        </mxCell>
        <mxCell id="e1DrF9yIWChWVW_2N1ab-14" style="edgeStyle=none;curved=1;rounded=0;orthogonalLoop=1;jettySize=auto;html=1;exitX=1;exitY=0.5;exitDx=0;exitDy=0;entryX=1;entryY=0.5;entryDx=0;entryDy=0;fontSize=12;startSize=8;endSize=8;" edge="1" parent="1" source="e1DrF9yIWChWVW_2N1ab-4" target="e1DrF9yIWChWVW_2N1ab-2">
          <mxGeometry relative="1" as="geometry">
            <Array as="points">
              <mxPoint x="640" y="260" />
            </Array>
          </mxGeometry>
        </mxCell>
        <mxCell id="e1DrF9yIWChWVW_2N1ab-4" value="уведомление с предложение изменить заказ" style="rounded=1;whiteSpace=wrap;html=1;" vertex="1" parent="1">
          <mxGeometry x="400" y="290" width="120" height="60" as="geometry" />
        </mxCell>
        <mxCell id="e1DrF9yIWChWVW_2N1ab-5" value="подтверждение заказа" style="rounded=1;whiteSpace=wrap;html=1;" vertex="1" parent="1">
          <mxGeometry x="50" y="290" width="120" height="60" as="geometry" />
        </mxCell>
        <mxCell id="e1DrF9yIWChWVW_2N1ab-10" style="edgeStyle=none;curved=1;rounded=0;orthogonalLoop=1;jettySize=auto;html=1;exitX=1;exitY=0.5;exitDx=0;exitDy=0;entryX=0.389;entryY=0.011;entryDx=0;entryDy=0;entryPerimeter=0;fontSize=12;startSize=8;endSize=8;" edge="1" parent="1" source="e1DrF9yIWChWVW_2N1ab-3" target="e1DrF9yIWChWVW_2N1ab-4">
          <mxGeometry relative="1" as="geometry" />
        </mxCell>
        <mxCell id="e1DrF9yIWChWVW_2N1ab-11" value="нет" style="edgeLabel;html=1;align=center;verticalAlign=middle;resizable=0;points=[];fontSize=12;" vertex="1" connectable="0" parent="e1DrF9yIWChWVW_2N1ab-10">
          <mxGeometry x="-0.2096" y="-1" relative="1" as="geometry">
            <mxPoint as="offset" />
          </mxGeometry>
        </mxCell>
        <mxCell id="e1DrF9yIWChWVW_2N1ab-15" value="оплата заказа" style="rounded=1;whiteSpace=wrap;html=1;" vertex="1" parent="1">
          <mxGeometry x="-80" y="380" width="120" height="60" as="geometry" />
        </mxCell>
        <mxCell id="e1DrF9yIWChWVW_2N1ab-16" style="edgeStyle=none;curved=1;rounded=0;orthogonalLoop=1;jettySize=auto;html=1;exitX=0;exitY=1;exitDx=0;exitDy=0;entryX=0.419;entryY=0.056;entryDx=0;entryDy=0;entryPerimeter=0;fontSize=12;startSize=8;endSize=8;" edge="1" parent="1" source="e1DrF9yIWChWVW_2N1ab-5" target="e1DrF9yIWChWVW_2N1ab-15">
          <mxGeometry relative="1" as="geometry" />
        </mxCell>
        <mxCell id="e1DrF9yIWChWVW_2N1ab-23" style="edgeStyle=none;curved=1;rounded=0;orthogonalLoop=1;jettySize=auto;html=1;exitX=0;exitY=0.5;exitDx=0;exitDy=0;entryX=0.5;entryY=0;entryDx=0;entryDy=0;fontSize=12;startSize=8;endSize=8;" edge="1" parent="1" source="e1DrF9yIWChWVW_2N1ab-17" target="e1DrF9yIWChWVW_2N1ab-18">
          <mxGeometry relative="1" as="geometry" />
        </mxCell>
        <mxCell id="e1DrF9yIWChWVW_2N1ab-26" style="edgeStyle=none;curved=1;rounded=0;orthogonalLoop=1;jettySize=auto;html=1;exitX=1;exitY=0.5;exitDx=0;exitDy=0;entryX=0.5;entryY=0;entryDx=0;entryDy=0;fontSize=12;startSize=8;endSize=8;" edge="1" parent="1" source="e1DrF9yIWChWVW_2N1ab-17" target="e1DrF9yIWChWVW_2N1ab-19">
          <mxGeometry relative="1" as="geometry" />
        </mxCell>
        <mxCell id="e1DrF9yIWChWVW_2N1ab-17" value="клиент выбирает способ оплаты" style="rhombus;whiteSpace=wrap;html=1;" vertex="1" parent="1">
          <mxGeometry x="-115" y="470" width="190" height="80" as="geometry" />
        </mxCell>
        <mxCell id="e1DrF9yIWChWVW_2N1ab-24" style="edgeStyle=none;curved=1;rounded=0;orthogonalLoop=1;jettySize=auto;html=1;exitX=0.5;exitY=1;exitDx=0;exitDy=0;entryX=0.5;entryY=0;entryDx=0;entryDy=0;fontSize=12;startSize=8;endSize=8;" edge="1" parent="1" source="e1DrF9yIWChWVW_2N1ab-18" target="e1DrF9yIWChWVW_2N1ab-20">
          <mxGeometry relative="1" as="geometry" />
        </mxCell>
        <mxCell id="e1DrF9yIWChWVW_2N1ab-18" value="онлайн" style="rounded=1;whiteSpace=wrap;html=1;" vertex="1" parent="1">
          <mxGeometry x="-250" y="550" width="120" height="60" as="geometry" />
        </mxCell>
        <mxCell id="e1DrF9yIWChWVW_2N1ab-30" style="edgeStyle=none;curved=1;rounded=0;orthogonalLoop=1;jettySize=auto;html=1;exitX=0.5;exitY=1;exitDx=0;exitDy=0;entryX=0.75;entryY=0;entryDx=0;entryDy=0;fontSize=12;startSize=8;endSize=8;" edge="1" parent="1" source="e1DrF9yIWChWVW_2N1ab-19" target="e1DrF9yIWChWVW_2N1ab-29">
          <mxGeometry relative="1" as="geometry" />
        </mxCell>
        <mxCell id="e1DrF9yIWChWVW_2N1ab-19" value="после получения" style="rounded=1;whiteSpace=wrap;html=1;" vertex="1" parent="1">
          <mxGeometry x="100" y="555" width="120" height="60" as="geometry" />
        </mxCell>
        <mxCell id="e1DrF9yIWChWVW_2N1ab-25" style="edgeStyle=none;curved=1;rounded=0;orthogonalLoop=1;jettySize=auto;html=1;exitX=0.5;exitY=1;exitDx=0;exitDy=0;entryX=0.5;entryY=0;entryDx=0;entryDy=0;fontSize=12;startSize=8;endSize=8;" edge="1" parent="1" source="e1DrF9yIWChWVW_2N1ab-20" target="e1DrF9yIWChWVW_2N1ab-21">
          <mxGeometry relative="1" as="geometry" />
        </mxCell>
        <mxCell id="e1DrF9yIWChWVW_2N1ab-20" value="проверка оплаты через платежный шлюз" style="rounded=1;whiteSpace=wrap;html=1;" vertex="1" parent="1">
          <mxGeometry x="-250" y="660" width="120" height="60" as="geometry" />
        </mxCell>
        <mxCell id="e1DrF9yIWChWVW_2N1ab-27" style="edgeStyle=none;curved=1;rounded=0;orthogonalLoop=1;jettySize=auto;html=1;exitX=1;exitY=0.5;exitDx=0;exitDy=0;entryX=0;entryY=0.5;entryDx=0;entryDy=0;fontSize=12;startSize=8;endSize=8;" edge="1" parent="1" source="e1DrF9yIWChWVW_2N1ab-21" target="e1DrF9yIWChWVW_2N1ab-22">
          <mxGeometry relative="1" as="geometry" />
        </mxCell>
        <mxCell id="e1DrF9yIWChWVW_2N1ab-28" value="да" style="edgeLabel;html=1;align=center;verticalAlign=middle;resizable=0;points=[];fontSize=12;" vertex="1" connectable="0" parent="e1DrF9yIWChWVW_2N1ab-27">
          <mxGeometry x="0.2083" y="-5" relative="1" as="geometry">
            <mxPoint as="offset" />
          </mxGeometry>
        </mxCell>
        <mxCell id="e1DrF9yIWChWVW_2N1ab-53" style="edgeStyle=none;curved=1;rounded=0;orthogonalLoop=1;jettySize=auto;html=1;exitX=0;exitY=0.5;exitDx=0;exitDy=0;entryX=0.5;entryY=1;entryDx=0;entryDy=0;fontSize=12;startSize=8;endSize=8;" edge="1" parent="1" source="e1DrF9yIWChWVW_2N1ab-21" target="e1DrF9yIWChWVW_2N1ab-49">
          <mxGeometry relative="1" as="geometry" />
        </mxCell>
        <mxCell id="e1DrF9yIWChWVW_2N1ab-55" value="нет" style="edgeLabel;html=1;align=center;verticalAlign=middle;resizable=0;points=[];fontSize=12;" vertex="1" connectable="0" parent="e1DrF9yIWChWVW_2N1ab-53">
          <mxGeometry x="0.0527" relative="1" as="geometry">
            <mxPoint as="offset" />
          </mxGeometry>
        </mxCell>
        <mxCell id="e1DrF9yIWChWVW_2N1ab-21" value="оплата прошла" style="rhombus;whiteSpace=wrap;html=1;" vertex="1" parent="1">
          <mxGeometry x="-230" y="750" width="80" height="80" as="geometry" />
        </mxCell>
        <mxCell id="e1DrF9yIWChWVW_2N1ab-31" style="edgeStyle=none;curved=1;rounded=0;orthogonalLoop=1;jettySize=auto;html=1;exitX=1;exitY=0.5;exitDx=0;exitDy=0;entryX=0.5;entryY=0;entryDx=0;entryDy=0;fontSize=12;startSize=8;endSize=8;" edge="1" parent="1" source="e1DrF9yIWChWVW_2N1ab-22" target="e1DrF9yIWChWVW_2N1ab-29">
          <mxGeometry relative="1" as="geometry" />
        </mxCell>
        <mxCell id="e1DrF9yIWChWVW_2N1ab-22" value="оплата прошла успешно" style="rounded=1;whiteSpace=wrap;html=1;" vertex="1" parent="1">
          <mxGeometry x="-70" y="760" width="120" height="60" as="geometry" />
        </mxCell>
        <mxCell id="e1DrF9yIWChWVW_2N1ab-33" style="edgeStyle=none;curved=1;rounded=0;orthogonalLoop=1;jettySize=auto;html=1;exitX=0.5;exitY=1;exitDx=0;exitDy=0;entryX=0;entryY=0.5;entryDx=0;entryDy=0;fontSize=12;startSize=8;endSize=8;" edge="1" parent="1" source="e1DrF9yIWChWVW_2N1ab-29" target="e1DrF9yIWChWVW_2N1ab-32">
          <mxGeometry relative="1" as="geometry" />
        </mxCell>
        <mxCell id="e1DrF9yIWChWVW_2N1ab-29" value="" style="rounded=0;whiteSpace=wrap;html=1;rotation=-90;" vertex="1" parent="1">
          <mxGeometry x="170" y="710" width="120" height="10" as="geometry" />
        </mxCell>
        <mxCell id="e1DrF9yIWChWVW_2N1ab-35" style="edgeStyle=none;curved=1;rounded=0;orthogonalLoop=1;jettySize=auto;html=1;exitX=0.5;exitY=1;exitDx=0;exitDy=0;entryX=0.5;entryY=0;entryDx=0;entryDy=0;fontSize=12;startSize=8;endSize=8;" edge="1" parent="1" source="e1DrF9yIWChWVW_2N1ab-32" target="e1DrF9yIWChWVW_2N1ab-34">
          <mxGeometry relative="1" as="geometry" />
        </mxCell>
        <mxCell id="e1DrF9yIWChWVW_2N1ab-32" value="склад начинает собирать заказ" style="rounded=1;whiteSpace=wrap;html=1;" vertex="1" parent="1">
          <mxGeometry x="330" y="690" width="120" height="60" as="geometry" />
        </mxCell>
        <mxCell id="e1DrF9yIWChWVW_2N1ab-38" style="edgeStyle=none;curved=1;rounded=0;orthogonalLoop=1;jettySize=auto;html=1;exitX=0;exitY=0.5;exitDx=0;exitDy=0;entryX=0.5;entryY=0;entryDx=0;entryDy=0;fontSize=12;startSize=8;endSize=8;" edge="1" parent="1" source="e1DrF9yIWChWVW_2N1ab-34" target="e1DrF9yIWChWVW_2N1ab-36">
          <mxGeometry relative="1" as="geometry" />
        </mxCell>
        <mxCell id="e1DrF9yIWChWVW_2N1ab-39" style="edgeStyle=none;curved=1;rounded=0;orthogonalLoop=1;jettySize=auto;html=1;exitX=1;exitY=0.5;exitDx=0;exitDy=0;entryX=0.5;entryY=0;entryDx=0;entryDy=0;fontSize=12;startSize=8;endSize=8;" edge="1" parent="1" source="e1DrF9yIWChWVW_2N1ab-34" target="e1DrF9yIWChWVW_2N1ab-37">
          <mxGeometry relative="1" as="geometry" />
        </mxCell>
        <mxCell id="e1DrF9yIWChWVW_2N1ab-34" value="клиент выбирает способ доставки" style="rhombus;whiteSpace=wrap;html=1;" vertex="1" parent="1">
          <mxGeometry x="325" y="790" width="130" height="80" as="geometry" />
        </mxCell>
        <mxCell id="e1DrF9yIWChWVW_2N1ab-36" value="курьерская служба" style="rounded=1;whiteSpace=wrap;html=1;" vertex="1" parent="1">
          <mxGeometry x="210" y="890" width="120" height="60" as="geometry" />
        </mxCell>
        <mxCell id="e1DrF9yIWChWVW_2N1ab-37" value="пункт выдачи" style="rounded=1;whiteSpace=wrap;html=1;" vertex="1" parent="1">
          <mxGeometry x="455" y="890" width="120" height="60" as="geometry" />
        </mxCell>
        <mxCell id="e1DrF9yIWChWVW_2N1ab-45" style="edgeStyle=none;curved=1;rounded=0;orthogonalLoop=1;jettySize=auto;html=1;exitX=0.75;exitY=1;exitDx=0;exitDy=0;entryX=0.25;entryY=0;entryDx=0;entryDy=0;fontSize=12;startSize=8;endSize=8;" edge="1" parent="1" source="e1DrF9yIWChWVW_2N1ab-40" target="e1DrF9yIWChWVW_2N1ab-44">
          <mxGeometry relative="1" as="geometry" />
        </mxCell>
        <mxCell id="e1DrF9yIWChWVW_2N1ab-40" value="система отправляет запрос в службу доставки" style="rounded=1;whiteSpace=wrap;html=1;" vertex="1" parent="1">
          <mxGeometry x="220" y="990" width="120" height="60" as="geometry" />
        </mxCell>
        <mxCell id="e1DrF9yIWChWVW_2N1ab-41" value="клиенту посылают уведомление о том, что заказ готов" style="rounded=1;whiteSpace=wrap;html=1;" vertex="1" parent="1">
          <mxGeometry x="460" y="990" width="120" height="60" as="geometry" />
        </mxCell>
        <mxCell id="e1DrF9yIWChWVW_2N1ab-42" style="edgeStyle=none;curved=1;rounded=0;orthogonalLoop=1;jettySize=auto;html=1;exitX=0.5;exitY=1;exitDx=0;exitDy=0;entryX=0.431;entryY=0.022;entryDx=0;entryDy=0;entryPerimeter=0;fontSize=12;startSize=8;endSize=8;" edge="1" parent="1" source="e1DrF9yIWChWVW_2N1ab-36" target="e1DrF9yIWChWVW_2N1ab-40">
          <mxGeometry relative="1" as="geometry" />
        </mxCell>
        <mxCell id="e1DrF9yIWChWVW_2N1ab-43" style="edgeStyle=none;curved=1;rounded=0;orthogonalLoop=1;jettySize=auto;html=1;exitX=0.5;exitY=1;exitDx=0;exitDy=0;entryX=0.442;entryY=0.011;entryDx=0;entryDy=0;entryPerimeter=0;fontSize=12;startSize=8;endSize=8;" edge="1" parent="1" source="e1DrF9yIWChWVW_2N1ab-37" target="e1DrF9yIWChWVW_2N1ab-41">
          <mxGeometry relative="1" as="geometry" />
        </mxCell>
        <mxCell id="e1DrF9yIWChWVW_2N1ab-48" style="edgeStyle=none;curved=1;rounded=0;orthogonalLoop=1;jettySize=auto;html=1;exitX=0.5;exitY=1;exitDx=0;exitDy=0;fontSize=12;startSize=8;endSize=8;" edge="1" parent="1" source="e1DrF9yIWChWVW_2N1ab-44" target="e1DrF9yIWChWVW_2N1ab-47">
          <mxGeometry relative="1" as="geometry" />
        </mxCell>
        <mxCell id="e1DrF9yIWChWVW_2N1ab-44" value="" style="rounded=0;whiteSpace=wrap;html=1;" vertex="1" parent="1">
          <mxGeometry x="354" y="1090" width="120" height="10" as="geometry" />
        </mxCell>
        <mxCell id="e1DrF9yIWChWVW_2N1ab-46" style="edgeStyle=none;curved=1;rounded=0;orthogonalLoop=1;jettySize=auto;html=1;exitX=0.25;exitY=1;exitDx=0;exitDy=0;entryX=0.664;entryY=-0.333;entryDx=0;entryDy=0;entryPerimeter=0;fontSize=12;startSize=8;endSize=8;" edge="1" parent="1" source="e1DrF9yIWChWVW_2N1ab-41" target="e1DrF9yIWChWVW_2N1ab-44">
          <mxGeometry relative="1" as="geometry" />
        </mxCell>
        <mxCell id="e1DrF9yIWChWVW_2N1ab-47" value="клиент подтверждает получение" style="rounded=1;whiteSpace=wrap;html=1;" vertex="1" parent="1">
          <mxGeometry x="354" y="1150" width="120" height="60" as="geometry" />
        </mxCell>
        <mxCell id="e1DrF9yIWChWVW_2N1ab-50" style="edgeStyle=none;curved=1;rounded=0;orthogonalLoop=1;jettySize=auto;html=1;exitX=1;exitY=0.5;exitDx=0;exitDy=0;entryX=0;entryY=0.75;entryDx=0;entryDy=0;fontSize=12;startSize=8;endSize=8;" edge="1" parent="1" source="e1DrF9yIWChWVW_2N1ab-49" target="e1DrF9yIWChWVW_2N1ab-18">
          <mxGeometry relative="1" as="geometry" />
        </mxCell>
        <mxCell id="e1DrF9yIWChWVW_2N1ab-49" value="отправляется уведомление с предложением повторить платеж" style="rounded=1;whiteSpace=wrap;html=1;" vertex="1" parent="1">
          <mxGeometry x="-540" y="555" width="120" height="60" as="geometry" />
        </mxCell>
      </root>
    </mxGraphModel>
  </diagram>
</mxfile>
